PathFileType	4	(X/Y/Z)	D:\Share\Shared_Data\Ergonomics\Sit To Stand Pertubation\S3\Unperturbed.trc
DataRate	CameraRate	NumFrames	NumMarkers	Units	OrigDataRate	OrigDataStartFrame	OrigNumFrames	
100	100	8	18	m	100	5870	251
Frame#	Time	R_Thigh			R_ASIS			R_Pelvis			V_Sacral			L_Pelvis			L_ASIS			Clavical			R_Acromium			L_Acromium			Sternum			Torso			R_Thigh_Med			R_Thigh_Lat			R_Shank_Med			R_Shank_Lat			R_Shank			R_Heel			R_Toe			
		X1	Y1	Z1	X2	Y2	Z2	X3	Y3	Z3	X4	Y4	Z4	X5	Y5	Z5	X6	Y6	Z6	X7	Y7	Z7	X8	Y8	Z8	X9	Y9	Z9	X10	Y10	Z10	X11	Y11	Z11	X12	Y12	Z12	X13	Y13	Z13	X14	Y14	Z14	X15	Y15	Z15	X16	Y16	Z16	X17	Y17	Z17	X18	Y18	Z18	

5870	58.69	0.44650012	0.65258154	0.10447455	0.44723483	0.94233142	0.13491632	0.3361907	0.94843469	0.18481371	0.23415486	0.97031104	-0.0079278641	0.34952655	0.95685931	-0.20906422	0.4536683	0.93519672	-0.14990775	0.38642181	1.3684076	-0.0026839595	0.32035938	1.4181306	0.16689386	0.33061539	1.4181322	-0.15866742	0.42144797	1.2988647	0.0020037603	0.39239517	1.3565321	-0.06909874	0.35510159	0.45383411	0.039174351	0.32650739	0.45400296	0.141493	0.26144568	0.10528553	0.090662369	0.23735748	0.10002834	0.16838773	0.25215009	0.28904364	0.16809277	0.18215953	0.052991455	0.11824326	0.40154565	0.053221973	0.14174216
5871	58.7	0.44701086	0.65235364	0.10428885	0.44792261	0.94219635	0.13500133	0.33662878	0.94813202	0.18441612	0.23481184	0.97017615	-0.0083050232	0.35044098	0.95663544	-0.20922395	0.45465393	0.93505182	-0.14996295	0.38638474	1.3680602	-0.0029043329	0.32032941	1.4175104	0.16687009	0.33009293	1.4176151	-0.15891336	0.42155029	1.2984677	0.0017292335	0.39230984	1.356077	-0.069335281	0.35554489	0.45358609	0.038988647	0.32683948	0.4538667	0.14138234	0.26138608	0.10522004	0.090519447	0.23734554	0.10003615	0.1683703	0.25233275	0.28902286	0.16802701	0.18215529	0.052985249	0.11824963	0.40153967	0.053218414	0.14174536
5872	58.71	0.44742725	0.65214587	0.10399484	0.44854544	0.9420589	0.13512045	0.33698553	0.94781464	0.18400626	0.23541051	0.97009198	-0.0087155533	0.35133328	0.95641919	-0.20933997	0.45560233	0.93488928	-0.14996922	0.38641788	1.3676814	-0.003122587	0.32038678	1.416953	0.16684015	0.32957495	1.4171403	-0.15911922	0.42170084	1.2979636	0.0014637384	0.39228098	1.355548	-0.069555122	0.35584814	0.45336307	0.038764011	0.32710791	0.45375476	0.14125919	0.26132999	0.10515015	0.090363945	0.23732466	0.10010768	0.16837331	0.25248793	0.28900803	0.1679641	0.18215195	0.053003429	0.11827338	0.40153455	0.053215111	0.14174309
5873	58.72	0.44775836	0.65195697	0.10363719	0.44911243	0.94192493	0.13525822	0.33729779	0.94750958	0.18361856	0.23595512	0.97004657	-0.0091313801	0.35219009	0.95621643	-0.20941187	0.45650253	0.9347135	-0.14994334	0.38651852	1.3672878	-0.0033362427	0.32054202	1.4164795	0.16679945	0.32911569	1.4167213	-0.15928276	0.42189459	1.297389	0.0012099235	0.39231125	1.3549761	-0.069755348	0.3560239	0.45317279	0.038521179	0.3273125	0.45366873	0.14113382	0.26128854	0.10506674	0.09019062	0.2373075	0.10018608	0.16838338	0.2526091	0.28900021	0.1679079	0.18215002	0.053056717	0.11832452	0.40153018	0.053212337	0.14173746
5874	58.73	0.44801544	0.65178436	0.10326415	0.4496315	0.94179816	0.13540012	0.33760135	0.94724066	0.18327867	0.2364502	0.9700293	-0.0095254259	0.35299789	0.9560332	-0.20944592	0.45734305	0.93453143	-0.14990184	0.38668167	1.3668973	-0.0035439889	0.32079926	1.4161019	0.16674524	0.32876337	1.4163683	-0.15940659	0.42212714	1.2967842	0.00097056848	0.39240207	1.3543928	-0.069933479	0.35609454	0.45301904	0.038280991	0.32745993	0.45360501	0.14101562	0.26126581	0.10496306	0.08999379	0.23730405	0.10020591	0.168379	0.2526974	0.2889967	0.1678609	0.18214989	0.053153481	0.11841223	0.40152582	0.053210293	0.14173029
5875	58.74	0.44821127	0.65162408	0.10292215	0.45010834	0.94168079	0.13553297	0.33792728	0.94702484	0.18300197	0.23690118	0.9700304	-0.0098753471	0.35374371	0.95587549	-0.20945335	0.45811334	0.93435217	-0.1498596	0.38689899	1.366526	-0.0037452703	0.32115576	1.415823	0.16667657	0.32855423	1.4160856	-0.15949786	0.42239441	1.2961888	0.00074923301	0.39255261	1.3538295	-0.070088272	0.35608896	0.45290103	0.038062096	0.3275614	0.45355673	0.14091161	0.261258	0.10484402	0.089782516	0.23731339	0.1001415	0.16834787	0.25275906	0.28899304	0.16782393	0.18215163	0.053296444	0.11854108	0.40152072	0.053209255	0.14172295
5876	58.75	0.44836002	0.65147211	0.10265108	0.45054538	0.94157294	0.13564609	0.3382981	0.94687079	0.18279391	0.23731459	0.97004022	-0.010166353	0.35441562	0.95574951	-0.20944862	0.45880475	0.93418616	-0.14982901	0.38715918	1.3661891	-0.003939136	0.32160355	1.4156381	0.16659521	0.32850916	1.4158746	-0.15956635	0.42269211	1.2956405	0.00055010283	0.39275848	1.3533136	-0.070220284	0.35603915	0.4528136	0.037879745	0.32762921	0.45351636	0.14082619	0.26126004	0.10472586	0.089585869	0.23732433	0.10002585	0.16829855	0.25280121	0.28898557	0.16779591	0.18215488	0.053477386	0.11870582	0.40151407	0.053209629	0.14171638
5877	58.76	0.44847592	0.65132556	0.10248043	0.45094287	0.94147357	0.13573228	0.3387243	0.94677863	0.18265071	0.23769795	0.97004865	-0.010392736	0.35500446	0.95566119	-0.20944621	0.45941089	0.93404413	-0.14981935	0.38745038	1.3659001	-0.0041234059	0.32213098	1.4155367	0.16650609	0.32863196	1.4157325	-0.15962187	0.42301553	1.29517	0.00037651011	0.39301208	1.3528671	-0.070331642	0.35597589	0.4527482	0.037745136	0.32767355	0.45347739	0.14076137	0.26126877	0.10462827	0.089440063	0.23732317	0.099925148	0.16825394	0.25282872	0.28897266	0.16777422	0.18215865	0.053669586	0.11888451	0.40150552	0.053211742	0.14171127
